<?xml version="1.0" encoding="utf-8"?>
<!-- Generator: Adobe Illustrator 24.1.2, SVG Export Plug-In . SVG Version: 6.00 Build 0)  -->
<svg version="1.1" id="Layer_1" xmlns="http://www.w3.org/2000/svg" xmlns:xlink="http://www.w3.org/1999/xlink" x="0px" y="0px"
	 viewBox="0 0 23.91 24" style="enable-background:new 0 0 23.91 24;" xml:space="preserve">
<desc>Created with Sketch.</desc>
<g>
	<g>
		<path d="M23.62,22.29l-7.65-7.68c1.23-1.54,1.97-3.49,1.97-5.61c0-4.96-4.02-9-8.97-9S0,4.04,0,9s4.02,9,8.97,9
			c2.11,0,4.06-0.74,5.59-1.97l7.65,7.68c0.19,0.2,0.45,0.29,0.7,0.29s0.51-0.1,0.7-0.29C24.01,23.32,24.01,22.68,23.62,22.29z
			 M8.97,16c-3.85,0-6.97-3.14-6.97-7s3.13-7,6.97-7c3.84,0,6.97,3.14,6.97,7S12.81,16,8.97,16z M12.95,8H4.98c-0.55,0-1,0.45-1,1
			s0.45,1,1,1h7.97c0.55,0,1-0.45,1-1S13.5,8,12.95,8z"/>
	</g>
</g>
</svg>
