<?xml version="1.0" encoding="utf-8"?>
<!-- Generator: Adobe Illustrator 24.1.2, SVG Export Plug-In . SVG Version: 6.00 Build 0)  -->
<svg version="1.1" id="Layer_1" xmlns="http://www.w3.org/2000/svg" xmlns:xlink="http://www.w3.org/1999/xlink" x="0px" y="0px"
	 viewBox="0 0 24 24.01" style="enable-background:new 0 0 24 24.01;" xml:space="preserve">
<desc>Created with Sketch.</desc>
<path d="M23.29,0.71c-0.94-0.94-2.46-0.94-3.4,0l-4.04,4.04l-1.78-1.78L9.56,7.49l1.26,1.26l-8.2,8.28c-0.9,0.9-2.02,2.53-1.79,4.01
	C0.34,21.31,0,21.81,0,22.41c0,0.89,0.72,1.61,1.6,1.61c0.62,0,1.14-0.36,1.41-0.88c0.11,0.01,0.22,0.03,0.33,0.03
	c1.74,0,3.42-1.61,3.62-1.8l8.23-8.24l1.26,1.27l4.52-4.53l-1.72-1.72l4.04-4.04C24.23,3.17,24.23,1.65,23.29,0.71z M5.83,20.23
	c-0.43,0.43-2.15,1.74-3.03,1.13c-0.06-0.07-0.12-0.12-0.18-0.17c-0.78-1.01,1.11-3.01,1.13-3.03l8.19-8.27l2.11,2.11L5.83,20.23z"
	/>
</svg>
