<?xml version="1.0" encoding="utf-8"?>
<!-- Generator: Adobe Illustrator 24.1.2, SVG Export Plug-In . SVG Version: 6.00 Build 0)  -->
<svg version="1.1" id="Layer_1" xmlns="http://www.w3.org/2000/svg" xmlns:xlink="http://www.w3.org/1999/xlink" x="0px" y="0px"
	 viewBox="0 0 24.02 24.02" style="enable-background:new 0 0 24.02 24.02;" xml:space="preserve">
<desc>Created with Sketch.</desc>
<g>
	<g>
		<path d="M23.94,12.38c0.11-0.26,0.11-0.54,0-0.8c-0.05-0.13-0.13-0.24-0.22-0.34l-3.68-3.68c-0.41-0.41-1.07-0.4-1.47,0
			c-0.41,0.41-0.41,1.07,0,1.47l1.9,1.9l-7.4,0.01l0.01-7.4l1.9,1.9c0.41,0.41,1.07,0.4,1.47,0c0.41-0.41,0.41-1.07,0-1.47
			L12.78,0.3c0,0,0,0,0,0c-0.1-0.09-0.21-0.17-0.34-0.22c-0.25-0.11-0.54-0.1-0.8,0c-0.13,0.05-0.24,0.13-0.34,0.23L7.61,4
			c-0.41,0.41-0.41,1.07,0,1.47c0.41,0.41,1.07,0.4,1.47,0l1.91-1.91l-0.01,7.42l-7.42,0.01l1.91-1.91c0.41-0.41,0.41-1.07,0-1.47
			C5.06,7.2,4.4,7.21,4,7.61L0.31,11.3c0,0,0,0,0,0l0,0c0,0,0,0,0,0c-0.1,0.1-0.17,0.21-0.22,0.34c-0.11,0.26-0.11,0.54,0,0.8
			c0.05,0.13,0.13,0.24,0.22,0.34l3.68,3.68c0.41,0.41,1.07,0.4,1.47,0c0.41-0.41,0.41-1.07,0-1.47l-1.9-1.9l7.4-0.01l-0.01,7.4
			l-1.9-1.9c-0.41-0.41-1.07-0.4-1.47,0c-0.41,0.41-0.41,1.07,0,1.47l3.68,3.68c0.1,0.1,0.21,0.17,0.34,0.22
			c0.25,0.11,0.54,0.1,0.8,0c0.13-0.05,0.24-0.13,0.34-0.23l3.69-3.69c0.41-0.41,0.41-1.07,0-1.47c-0.41-0.41-1.07-0.4-1.47,0
			l-1.91,1.91l0.01-7.42l7.42-0.01l-1.91,1.91c-0.41,0.41-0.41,1.07,0,1.47c0.41,0.41,1.07,0.4,1.47,0l3.69-3.69
			C23.81,12.62,23.89,12.5,23.94,12.38z"/>
	</g>
</g>
</svg>
