<?xml version="1.0" encoding="utf-8"?>
<!-- Generator: Adobe Illustrator 24.1.2, SVG Export Plug-In . SVG Version: 6.00 Build 0)  -->
<svg version="1.1" id="Layer_1" xmlns="http://www.w3.org/2000/svg" xmlns:xlink="http://www.w3.org/1999/xlink" x="0px" y="0px"
	 viewBox="0 0 23.64 23.72" style="enable-background:new 0 0 23.64 23.72;" xml:space="preserve">
<desc>Created with Sketch.</desc>
<g>
	<g>
		<path d="M22.72,0.92c-1.23-1.23-3.23-1.23-4.46,0c-0.02,0.02-0.02,0.04-0.04,0.06C18.21,0.99,18.19,1,18.18,1.01l-1.44,1.45
			c0,0,0,0,0,0s0,0,0,0L2.46,16.77c-0.08,0.08-0.13,0.17-0.18,0.27c-0.01,0.02-0.03,0.03-0.04,0.05l-2.17,5.25
			c-0.15,0.37-0.07,0.79,0.21,1.08c0.19,0.19,0.44,0.29,0.7,0.29c0.13,0,0.25-0.02,0.38-0.08l5.23-2.18c0,0,0,0,0,0l0.01,0
			c0.06-0.03,0.11-0.07,0.17-0.11c0.05-0.03,0.11-0.06,0.15-0.1l0,0c0,0,0,0,0,0L21.19,6.94c0,0,0,0,0,0s0,0,0,0l1.44-1.45
			c0.02-0.02,0.02-0.04,0.04-0.05c0.02-0.01,0.04-0.02,0.05-0.04C23.95,4.16,23.95,2.16,22.72,0.92z M21.33,2.32
			c0.46,0.46,0.46,1.22,0,1.68c-0.02,0.02-0.02,0.04-0.04,0.05c-0.02,0.01-0.04,0.02-0.05,0.04l-0.75,0.75l-1.67-1.68l0.75-0.75
			c0.02-0.02,0.02-0.04,0.04-0.06c0.02-0.01,0.04-0.02,0.05-0.03C20.12,1.86,20.87,1.86,21.33,2.32z M17.43,4.56l1.67,1.68
			L6.22,19.15l-1.67-1.68L17.43,4.56z M3.5,19.22l0.98,0.98l-1.68,0.7L3.5,19.22z"/>
	</g>
</g>
</svg>
