<?xml version="1.0" encoding="utf-8"?>
<!-- Generator: Adobe Illustrator 24.1.2, SVG Export Plug-In . SVG Version: 6.00 Build 0)  -->
<svg version="1.1" id="Layer_1" xmlns="http://www.w3.org/2000/svg" xmlns:xlink="http://www.w3.org/1999/xlink" x="0px" y="0px"
	 viewBox="0 0 23.79 20.94" style="enable-background:new 0 0 23.79 20.94;" xml:space="preserve">
<desc>Created with Sketch.</desc>
<g>
	<g>
		<path d="M23.41,8.2l-9.89-7.98c-0.3-0.24-0.71-0.29-1.05-0.12c-0.34,0.17-0.56,0.52-0.56,0.9v4.12c-1.8,0.15-5.65,0.84-8.51,3.83
			C0.9,11.57-0.24,15.29,0.04,20c0.03,0.53,0.47,0.94,0.99,0.94c0.02,0,0.03,0,0.05,0c0.54-0.03,0.96-0.49,0.94-1.04
			c0-0.09-0.07-2.24,1.74-4.13c1.69-1.77,4.44-2.72,8.16-2.87v4.05c0,0.38,0.22,0.73,0.56,0.9c0.14,0.07,0.28,0.1,0.43,0.1
			c0.22,0,0.44-0.07,0.62-0.22l9.89-7.98c0.23-0.19,0.37-0.48,0.37-0.78C23.79,8.67,23.65,8.39,23.41,8.2z M13.89,14.88v-3
			c0-0.55-0.44-1-0.99-1c-4.58,0-8.03,1.08-10.27,3.21c0.47-1.46,1.2-2.71,2.18-3.74c3.06-3.21,7.67-3.28,8.05-3.28
			c0.07,0,0.04,0,0.04,0c0.14,0,0.26-0.03,0.38-0.08c0.05-0.02,0.09-0.06,0.14-0.09c0.06-0.04,0.13-0.07,0.18-0.12
			c0.04-0.04,0.06-0.09,0.1-0.14c0.04-0.06,0.09-0.11,0.12-0.17c0.02-0.05,0.02-0.11,0.04-0.16c0.02-0.07,0.04-0.14,0.05-0.21
			c0,0,0-0.01,0-0.01c0,0,0-0.01,0-0.01v-3l7.32,5.9L13.89,14.88z"/>
	</g>
</g>
</svg>
