<?xml version="1.0" encoding="utf-8"?>
<!-- Generator: Adobe Illustrator 24.1.2, SVG Export Plug-In . SVG Version: 6.00 Build 0)  -->
<svg version="1.1" id="Layer_1" xmlns="http://www.w3.org/2000/svg" xmlns:xlink="http://www.w3.org/1999/xlink" x="0px" y="0px"
	 viewBox="0 0 23.79 20.94" style="enable-background:new 0 0 23.79 20.94;" xml:space="preserve">
<desc>Created with Sketch.</desc>
<g>
	<g>
		<path d="M20.39,8.95c-2.86-2.99-6.71-3.68-8.51-3.83V1c0-0.38-0.22-0.73-0.56-0.9c-0.34-0.16-0.75-0.12-1.05,0.12L0.37,8.19
			C0.14,8.38,0,8.67,0,8.97s0.14,0.59,0.37,0.78l9.89,7.98c0.18,0.14,0.4,0.22,0.62,0.22c0.15,0,0.29-0.03,0.43-0.1
			c0.34-0.17,0.56-0.52,0.56-0.9V12.9c3.72,0.14,6.47,1.1,8.16,2.87c1.8,1.89,1.74,4.04,1.74,4.12c-0.03,0.55,0.39,1.02,0.93,1.05
			c0.02,0,0.04,0,0.06,0c0.52,0,0.96-0.41,0.99-0.94C24.02,15.28,22.89,11.57,20.39,8.95z M10.88,10.88c-0.55,0-0.99,0.45-0.99,1
			c0,0.18,0.06,0.34,0.14,0.48v2.58L2.57,8.97l7.46-6.04V5.6C9.95,5.75,9.89,5.91,9.9,6.09c0.01,0.52,0.43,0.92,0.94,0.96
			c0.02,0,0.03,0.01,0.05,0.01c0,0,0.01,0,0.01,0c0,0,0.01,0,0.01,0c0.04-0.02,4.89-0.05,8.07,3.28c0.98,1.03,1.71,2.28,2.18,3.74
			C18.92,11.95,15.47,10.88,10.88,10.88z"/>
	</g>
</g>
</svg>
